<svg width="15" height="15" viewBox="0 0 15 15" fill="none" xmlns="http://www.w3.org/2000/svg">
<path d="M13.3852 5.23507L7.76016 1.48507C7.68313 1.43368 7.5926 1.40625 7.5 1.40625C7.4074 1.40625 7.31687 1.43368 7.23984 1.48507L1.61484 5.23507C1.55063 5.27791 1.49799 5.33595 1.4616 5.40403C1.42521 5.4721 1.4062 5.54811 1.40625 5.6253V11.7191C1.40625 11.9677 1.50502 12.2062 1.68084 12.382C1.85665 12.5578 2.09511 12.6566 2.34375 12.6566H12.6562C12.9049 12.6566 13.1433 12.5578 13.3192 12.382C13.495 12.2062 13.5938 11.9677 13.5938 11.7191V5.6253C13.5938 5.54811 13.5748 5.4721 13.5384 5.40403C13.502 5.33595 13.4494 5.27791 13.3852 5.23507ZM5.66719 8.90655L2.34375 11.2503V6.53526L5.66719 8.90655ZM6.62637 9.3753H8.37363L11.6918 11.7191H3.3082L6.62637 9.3753ZM9.33281 8.90655L12.6562 6.53526V11.2503L9.33281 8.90655ZM7.5 2.43839L12.2994 5.6382L8.37363 8.4378H6.62754L2.70176 5.6382L7.5 2.43839Z" fill="white"/>
</svg>
