<svg width="21" height="21" viewBox="0 0 21 21" fill="none" xmlns="http://www.w3.org/2000/svg">
<path d="M10.5 14.4375C11.544 14.4364 12.5448 14.0212 13.283 13.283C14.0212 12.5448 14.4364 11.544 14.4375 10.5V5.25C14.4375 4.20571 14.0227 3.20419 13.2842 2.46577C12.5458 1.72734 11.5443 1.3125 10.5 1.3125C9.45571 1.3125 8.45419 1.72734 7.71577 2.46577C6.97734 3.20419 6.5625 4.20571 6.5625 5.25V10.5C6.56359 11.544 6.97878 12.5448 7.71697 13.283C8.45516 14.0212 9.45604 14.4364 10.5 14.4375ZM7.875 5.25C7.875 4.55381 8.15156 3.88613 8.64384 3.39384C9.13613 2.90156 9.80381 2.625 10.5 2.625C11.1962 2.625 11.8639 2.90156 12.3562 3.39384C12.8484 3.88613 13.125 4.55381 13.125 5.25V10.5C13.125 11.1962 12.8484 11.8639 12.3562 12.3562C11.8639 12.8484 11.1962 13.125 10.5 13.125C9.80381 13.125 9.13613 12.8484 8.64384 12.3562C8.15156 11.8639 7.875 11.1962 7.875 10.5V5.25ZM11.1562 17.0297V19.0312C11.1562 19.2053 11.0871 19.3722 10.964 19.4953C10.841 19.6184 10.674 19.6875 10.5 19.6875C10.326 19.6875 10.159 19.6184 10.036 19.4953C9.91289 19.3722 9.84375 19.2053 9.84375 19.0312V17.0297C8.2258 16.865 6.72637 16.1063 5.63542 14.9002C4.54447 13.6941 3.9395 12.1263 3.9375 10.5C3.9375 10.326 4.00664 10.159 4.12971 10.036C4.25278 9.91289 4.4197 9.84375 4.59375 9.84375C4.7678 9.84375 4.93472 9.91289 5.05779 10.036C5.18086 10.159 5.25 10.326 5.25 10.5C5.25 11.8924 5.80312 13.2277 6.78769 14.2123C7.77226 15.1969 9.10761 15.75 10.5 15.75C11.8924 15.75 13.2277 15.1969 14.2123 14.2123C15.1969 13.2277 15.75 11.8924 15.75 10.5C15.75 10.326 15.8191 10.159 15.9422 10.036C16.0653 9.91289 16.2322 9.84375 16.4062 9.84375C16.5803 9.84375 16.7472 9.91289 16.8703 10.036C16.9934 10.159 17.0625 10.326 17.0625 10.5C17.0605 12.1263 16.4555 13.6941 15.3646 14.9002C14.2736 16.1063 12.7742 16.865 11.1562 17.0297Z" fill="white"/>
</svg>
