<svg width="18" height="18" viewBox="0 0 18 18" fill="none" xmlns="http://www.w3.org/2000/svg">
<path d="M8.625 15.8125C4.66364 15.8125 1.4375 12.5864 1.4375 8.625C1.4375 4.66364 4.66364 1.4375 8.625 1.4375C12.5864 1.4375 15.8125 4.66364 15.8125 8.625C15.8125 12.5864 12.5864 15.8125 8.625 15.8125ZM8.625 1.5625C4.72599 1.5625 1.5625 4.73423 1.5625 8.625C1.5625 12.5158 4.72599 15.6875 8.625 15.6875C12.524 15.6875 15.6875 12.5158 15.6875 8.625C15.6875 4.73423 12.524 1.5625 8.625 1.5625Z" fill="#353945" stroke="white"/>
<path d="M16.5001 16.5626C16.4903 16.5626 16.4827 16.5608 16.4769 16.5585C16.4715 16.5563 16.4646 16.5525 16.4561 16.544L14.9561 15.044C14.9467 15.0346 14.9395 15.0199 14.9395 15.0001C14.9395 14.9803 14.9467 14.9656 14.9561 14.9561C14.9656 14.9467 14.9803 14.9395 15.0001 14.9395C15.0199 14.9395 15.0346 14.9467 15.044 14.9561L16.544 16.4561C16.5535 16.4656 16.5607 16.4803 16.5607 16.5001C16.5607 16.5199 16.5535 16.5346 16.544 16.544C16.5356 16.5525 16.5286 16.5563 16.5233 16.5585C16.5175 16.5608 16.5098 16.5626 16.5001 16.5626Z" fill="#353945" stroke="white"/>
</svg>
