<svg width="48" height="39" viewBox="0 0 48 39" fill="none" xmlns="http://www.w3.org/2000/svg">
<path fill-rule="evenodd" clip-rule="evenodd" d="M0 7C0 3.134 3.13401 0 7 0H41C44.866 0 48 3.13401 48 7V9.6H0V7ZM0 14.4V31.4C0 35.266 3.13401 38.4 7 38.4H41C44.866 38.4 48 35.266 48 31.4V14.4H0ZM9 26.4C8.52261 26.4 8.06477 26.5896 7.72721 26.9272C7.38964 27.2648 7.2 27.7226 7.2 28.2C7.2 28.6774 7.38964 29.1352 7.72721 29.4728C8.06477 29.8104 8.52261 30 9 30H23.4C23.8774 30 24.3352 29.8104 24.6728 29.4728C25.0104 29.1352 25.2 28.6774 25.2 28.2C25.2 27.7226 25.0104 27.2648 24.6728 26.9272C24.3352 26.5896 23.8774 26.4 23.4 26.4H9Z" fill="white"/>
</svg>
