<svg width="59" height="58" viewBox="0 0 59 58" fill="none" xmlns="http://www.w3.org/2000/svg">
<g clip-path="url(#clip0_20_167)">
<path d="M50.9837 21.7277C50.8931 21.6824 50.6439 21.6824 50.5533 21.6371C50.4626 21.5918 50.1228 21.5918 49.9642 21.5918C48.99 21.5918 48.2876 21.977 47.9025 22.6566L42.7369 31.1754L36.2345 31.2887C35.1697 31.2887 34.2634 32.1496 34.2634 33.2598C34.2634 33.5543 34.3314 33.8262 34.4447 34.0754H24.0228C24.1361 33.8262 24.204 33.5543 24.204 33.2598C24.204 32.1496 23.2978 31.2887 22.2329 31.2887H15.7306L10.565 22.6566C10.1798 21.977 9.45482 21.5918 8.50326 21.5918C8.36732 21.5918 8.02748 21.5918 7.9142 21.6371C7.82357 21.6824 7.57435 21.6824 7.48373 21.7277C0.868103 23.2457 0.845447 37.3605 0.890759 40.0566C0.890759 42.5262 1.7517 43.6137 3.54154 44.2934C3.97201 44.4973 4.51576 44.5879 4.94623 44.5879H16.3197V54.4207C16.3197 55.8707 17.4298 56.9809 18.8798 56.9809C20.3298 56.9809 21.44 55.8707 21.44 54.4207V42.1184C21.44 41.4387 21.1454 40.7137 20.6697 40.2832C20.1486 39.7621 19.4689 39.4676 18.8345 39.4676H11.2447V33.7809L7.30248 27.0746C7.09857 26.7801 7.21185 26.4402 7.43842 26.3043C7.73295 26.1004 8.07279 26.2137 8.20873 26.4402L12.7853 34.2113C12.8079 34.2566 12.8533 34.302 12.8759 34.3699V37.927H45.5915V34.3699C45.6369 34.3246 45.6595 34.2793 45.6822 34.2113L50.2587 26.4402C50.3947 26.191 50.7345 26.1004 51.029 26.3043C51.2783 26.4402 51.3689 26.7801 51.165 27.0746L47.2228 33.7809V39.4676H39.6556C39.0212 39.4676 38.3642 39.7621 37.8204 40.2832C37.3447 40.7137 37.0501 41.4387 37.0501 42.1184V54.4207C37.0501 55.8707 38.1603 56.9809 39.6103 56.9809C41.0603 56.9809 42.1704 55.8707 42.1704 54.4207V44.5879H53.5439C53.9744 44.5879 54.5181 44.4973 54.9486 44.2934C56.7384 43.6137 57.5994 42.5262 57.5994 40.0566C57.6447 37.3832 57.622 23.2457 50.9837 21.7277Z" fill="white"/>
<path d="M50.293 18.6164C51.2603 16.2812 50.1514 13.604 47.8161 12.6367C45.4809 11.6694 42.8037 12.7783 41.8364 15.1135C40.8691 17.4487 41.978 20.1259 44.3132 21.0932C46.6485 22.0605 49.3257 20.9516 50.293 18.6164Z" fill="white"/>
<path d="M16.6262 18.6184C17.5935 16.2831 16.4846 13.6059 14.1494 12.6386C11.8142 11.6713 9.13696 12.7802 8.16966 15.1155C7.20236 17.4507 8.31128 20.1279 10.6465 21.0952C12.9817 22.0625 15.6589 20.9536 16.6262 18.6184Z" fill="white"/>
<path d="M26.2658 15.3612V15.4971H28.8033H29.6869H32.2244V15.3612C32.2244 13.9112 32.7908 12.5065 33.8103 11.4416C34.8525 10.3315 35.5095 8.8135 35.5095 7.1596C35.5095 3.67053 32.6322 0.838503 29.1205 0.906472C25.6994 0.997097 22.9806 3.85178 23.0259 7.25022C23.0486 8.85881 23.6829 10.3315 24.7251 11.419C25.6767 12.5065 26.2658 13.8885 26.2658 15.3612Z" fill="white"/>
<path d="M32.2243 16.3809H26.2657V17.559H32.2243V16.3809Z" fill="white"/>
<path d="M28.3501 19.9602H30.14C30.797 19.9602 31.3408 19.4164 31.3408 18.7594V18.4648H27.172V18.7594C27.1494 19.4164 27.6931 19.9602 28.3501 19.9602Z" fill="white"/>
</g>
<defs>
<clipPath id="clip0_20_167">
<rect width="58" height="58" fill="white" transform="translate(0.279053)"/>
</clipPath>
</defs>
</svg>
