<svg width="70" height="70" viewBox="0 0 70 70" fill="none" xmlns="http://www.w3.org/2000/svg">
<g clip-path="url(#clip0_20_158)">
<path d="M35 70V58.3333C22.1142 58.3333 11.6667 47.8858 11.6667 35C11.6667 22.1127 22.1142 11.6667 35 11.6667V0H27.6777V6.79729C24.4519 7.63292 21.4302 8.97604 18.7396 10.7858L14.3748 6.41958L6.12646 14.6694L10.5627 19.1056C8.86667 21.7073 7.59354 24.5977 6.79583 27.685H0V42.315H6.79583C7.6125 45.4708 8.92208 48.4283 10.675 51.0767L6.12792 55.6252L14.3763 63.8721L18.9248 59.325C21.5775 61.0823 24.5438 62.3933 27.7083 63.21V70H35Z" fill="white"/>
<path d="M35 42.2917C30.9721 42.2917 27.7083 39.0279 27.7083 35C27.7083 30.9735 30.9721 27.7083 35 27.7083V21.875C27.7506 21.875 21.875 27.7506 21.875 35C21.875 42.2494 27.7506 48.125 35 48.125V42.2917Z" fill="white"/>
<path d="M52.8179 70V54.1465C62.9825 49.1444 70 38.7144 70 26.619C70 15.2192 63.7715 5.29229 54.5446 0V25.8723L39.3094 39.2321V70H52.8179Z" fill="white"/>
</g>
<defs>
<clipPath id="clip0_20_158">
<rect width="70" height="70" fill="white"/>
</clipPath>
</defs>
</svg>
