<svg width="61" height="58" viewBox="0 0 61 58" fill="none" xmlns="http://www.w3.org/2000/svg">
<path d="M60.84 24.1872V33.3144C60.8376 34.0248 60.264 34.6008 59.556 34.608H57.576V22.8912H59.556H59.5704C59.9208 22.8912 60.2376 23.0352 60.4632 23.2704C60.696 23.5008 60.8424 23.82 60.8424 24.1752L60.84 24.1872ZM59.5512 35.9592C60.2592 35.964 60.8328 36.5376 60.8376 37.2432V46.4064V46.4208C60.8376 47.1216 60.2688 47.6904 59.568 47.6904C59.5632 47.6904 59.556 47.6904 59.5512 47.6904H57.5736V35.9496H59.5536L59.5512 35.9592ZM59.5512 9.816C59.928 9.8208 60.2688 9.9648 60.528 10.1976C60.7992 10.4136 60.9696 10.7424 60.972 11.112V20.244V20.2656C60.972 20.6352 60.7968 20.9664 60.528 21.1776L60.5256 21.18C60.2616 21.3936 59.9208 21.5232 59.5512 21.5232H56.2752V49.6752V49.6872C56.2752 50.0208 56.1192 50.3208 55.8792 50.5152L55.8768 50.5176C55.6224 50.7072 55.3008 50.8224 54.9528 50.8224H37.932V45.0624H51.1608V42.3216H37.9224V39.0864H51.1512V36.492H37.9224V33.1776H51.1512V30.624H37.9224V27.3864H51.1512V24.8304H37.9224V21.516H51.1512V18.924H37.9224V15.684H51.1512V12.9792H37.9224V6.5448H55.4184C55.5864 6.636 55.728 6.7488 55.8456 6.8856L55.848 6.888C56.0808 7.1136 56.2368 7.416 56.28 7.7544V7.7616V9.8208H59.5512V9.816ZM34.668 0V57.6L0 51.6144V6.1416L34.6704 0.0024L34.668 0ZM24.7776 17.0736L20.712 17.34V24.9072C20.6656 29.3392 20.6656 31.8976 20.712 32.5824L12.6048 17.7984L8.4672 17.9616V38.9376L11.7048 39.192V23.7192L20.4456 39.636L24.7656 39.8904V17.0736H24.7776Z" fill="white"/>
</svg>
