<svg width="22" height="22" viewBox="0 0 22 22" fill="none" xmlns="http://www.w3.org/2000/svg">
<path d="M21.6365 6.27344C21.5268 6.21467 21.4033 6.18676 21.2791 6.19266C21.1548 6.19856 21.0345 6.23806 20.9309 6.30695L17.875 8.34023V6.1875C17.875 5.82283 17.7301 5.47309 17.4723 5.21523C17.2144 4.95737 16.8647 4.8125 16.5 4.8125H2.75C2.38533 4.8125 2.03559 4.95737 1.77773 5.21523C1.51987 5.47309 1.375 5.82283 1.375 6.1875V15.8125C1.375 16.1772 1.51987 16.5269 1.77773 16.7848C2.03559 17.0426 2.38533 17.1875 2.75 17.1875H16.5C16.8647 17.1875 17.2144 17.0426 17.4723 16.7848C17.7301 16.5269 17.875 16.1772 17.875 15.8125V13.6641L20.9309 15.7016C21.0444 15.7753 21.1772 15.8139 21.3125 15.8125C21.4948 15.8125 21.6697 15.7401 21.7986 15.6111C21.9276 15.4822 22 15.3073 22 15.125V6.875C21.9991 6.7513 21.9649 6.63013 21.9009 6.52425C21.837 6.41838 21.7456 6.33173 21.6365 6.27344ZM16.5 15.8125H2.75V6.1875H16.5V15.8125ZM20.625 13.8402L17.875 12.0072V9.99281L20.625 8.16406V13.8402Z" fill="white"/>
</svg>
