<svg width="22" height="22" viewBox="0 0 22 22" fill="none" xmlns="http://www.w3.org/2000/svg">
<path d="M10.9999 6.87541C10.1841 6.87541 9.38654 7.11733 8.70819 7.57059C8.02984 8.02385 7.50113 8.66809 7.18891 9.42184C6.8767 10.1756 6.79501 11.005 6.95418 11.8052C7.11334 12.6053 7.50621 13.3403 8.0831 13.9172C8.65999 14.4941 9.395 14.887 10.1952 15.0461C10.9953 15.2053 11.8247 15.1236 12.5785 14.8114C13.3322 14.4992 13.9765 13.9705 14.4297 13.2921C14.883 12.6138 15.1249 11.8163 15.1249 11.0004C15.1238 9.90674 14.6888 8.85819 13.9155 8.08485C13.1421 7.3115 12.0936 6.87654 10.9999 6.87541ZM10.9999 13.7504C10.456 13.7504 9.92433 13.5891 9.4721 13.2869C9.01986 12.9848 8.66739 12.5553 8.45925 12.0528C8.25111 11.5503 8.19665 10.9974 8.30276 10.4639C8.40887 9.93046 8.67078 9.44046 9.05537 9.05586C9.43997 8.67127 9.92997 8.40935 10.4634 8.30325C10.9969 8.19714 11.5498 8.2516 12.0523 8.45974C12.5548 8.66788 12.9843 9.02035 13.2865 9.47259C13.5886 9.92482 13.7499 10.4565 13.7499 11.0004C13.7499 11.7297 13.4602 12.4292 12.9445 12.9449C12.4287 13.4607 11.7293 13.7504 10.9999 13.7504ZM18.5624 11.186C18.5659 11.0623 18.5659 10.9385 18.5624 10.8148L19.8446 9.2129C19.9118 9.1288 19.9584 9.03008 19.9805 8.92469C20.0026 8.81931 19.9996 8.71021 19.9718 8.60619C19.7616 7.81608 19.4472 7.05746 19.0368 6.35033C18.9831 6.25779 18.9085 6.17907 18.8189 6.12044C18.7294 6.0618 18.6275 6.02488 18.5212 6.01259L16.4827 5.78572C16.3979 5.69634 16.312 5.61041 16.2249 5.52791L15.9843 3.48431C15.9719 3.37793 15.9349 3.27591 15.8761 3.18639C15.8173 3.09687 15.7384 3.02232 15.6457 2.96869C14.9383 2.55906 14.1797 2.24495 13.3898 2.03455C13.2857 2.00687 13.1766 2.00404 13.0712 2.02628C12.9658 2.04852 12.8672 2.09522 12.7831 2.16259L11.1855 3.43791C11.0618 3.43791 10.938 3.43791 10.8143 3.43791L9.21242 2.1583C9.12831 2.09107 9.02959 2.04453 8.92421 2.02244C8.81882 2.00035 8.70972 2.00332 8.6057 2.03111C7.81572 2.24168 7.05715 2.55609 6.34984 2.96611C6.2573 3.01984 6.17858 3.09443 6.11995 3.18395C6.06132 3.27347 6.02439 3.37543 6.0121 3.48173L5.78523 5.52361C5.69585 5.60897 5.60992 5.69491 5.52742 5.78142L3.48382 6.01603C3.37744 6.02841 3.27543 6.06546 3.1859 6.12425C3.09638 6.18304 3.02183 6.26192 2.9682 6.35462C2.55857 7.06203 2.24446 7.82058 2.03406 8.61048C2.00638 8.71457 2.00355 8.82371 2.02579 8.9291C2.04804 9.03448 2.09473 9.13317 2.1621 9.2172L3.43742 10.8148C3.43742 10.9385 3.43742 11.0623 3.43742 11.186L2.15781 12.7879C2.09058 12.872 2.04404 12.9707 2.02195 13.0761C1.99986 13.1815 2.00283 13.2906 2.03062 13.3946C2.24081 14.1847 2.55524 14.9433 2.96562 15.6505C3.01935 15.743 3.09395 15.8217 3.18346 15.8804C3.27298 15.939 3.37494 15.9759 3.48124 15.9882L5.51968 16.2151C5.60505 16.3045 5.69098 16.3904 5.7775 16.4729L6.01554 18.5165C6.02792 18.6229 6.06498 18.7249 6.12376 18.8144C6.18255 18.9039 6.26144 18.9785 6.35414 19.0321C7.06154 19.4417 7.82009 19.7559 8.60999 19.9663C8.71409 19.9939 8.82322 19.9968 8.92861 19.9745C9.034 19.9523 9.13268 19.9056 9.21671 19.8382L10.8143 18.5629C10.938 18.5663 11.0618 18.5663 11.1855 18.5629L12.7874 19.8451C12.8715 19.9123 12.9702 19.9589 13.0756 19.9809C13.181 20.003 13.2901 20.0001 13.3941 19.9723C14.1842 19.7621 14.9429 19.4477 15.65 19.0373C15.7425 18.9835 15.8213 18.909 15.8799 18.8194C15.9385 18.7299 15.9754 18.628 15.9877 18.5217L16.2146 16.4832C16.304 16.3984 16.3899 16.3125 16.4724 16.2254L18.516 15.9848C18.6224 15.9724 18.7244 15.9353 18.8139 15.8766C18.9035 15.8178 18.978 15.7389 19.0316 15.6462C19.4413 14.9388 19.7554 14.1802 19.9658 13.3903C19.9935 13.2862 19.9963 13.1771 19.974 13.0717C19.9518 12.9663 19.9051 12.8676 19.8377 12.7836L18.5624 11.186ZM17.1788 10.6274C17.1934 10.8759 17.1934 11.1249 17.1788 11.3734C17.1686 11.5435 17.2219 11.7113 17.3284 11.8443L18.5478 13.368C18.4079 13.8127 18.2287 14.2441 18.0124 14.657L16.0702 14.877C15.9011 14.8958 15.7449 14.9767 15.6319 15.1039C15.4665 15.29 15.2903 15.4662 15.1043 15.6316C14.977 15.7446 14.8962 15.9007 14.8774 16.0699L14.6617 18.0103C14.2488 18.2267 13.8174 18.4059 13.3727 18.5457L11.8481 17.3263C11.7261 17.2288 11.5746 17.1758 11.4184 17.1759H11.3772C11.1288 17.1905 10.8797 17.1905 10.6312 17.1759C10.4612 17.1656 10.2933 17.2189 10.1603 17.3254L8.63234 18.5457C8.18764 18.4058 7.75626 18.2266 7.34328 18.0103L7.12328 16.0707C7.1045 15.9016 7.02366 15.7454 6.8964 15.6324C6.71035 15.467 6.53417 15.2908 6.36874 15.1048C6.25577 14.9775 6.0996 14.8967 5.93046 14.8779L3.99 14.6613C3.7736 14.2484 3.59443 13.817 3.4546 13.3723L4.67406 11.8477C4.78054 11.7147 4.83383 11.5469 4.82359 11.3768C4.80898 11.1284 4.80898 10.8793 4.82359 10.6309C4.83383 10.4608 4.78054 10.293 4.67406 10.1599L3.4546 8.63283C3.59453 8.18813 3.7737 7.75674 3.99 7.34376L5.9296 7.12376C6.09874 7.10499 6.25491 7.02415 6.36789 6.89689C6.53331 6.71084 6.70949 6.53465 6.89554 6.36923C7.02331 6.25618 7.10448 6.09966 7.12328 5.93009L7.33898 3.99048C7.75191 3.77409 8.1833 3.59491 8.62804 3.45509L10.1526 4.67455C10.2856 4.78103 10.4534 4.83432 10.6235 4.82408C10.8719 4.80947 11.121 4.80947 11.3694 4.82408C11.5395 4.83432 11.7074 4.78103 11.8404 4.67455L13.3675 3.45509C13.8122 3.59502 14.2436 3.77419 14.6566 3.99048L14.8766 5.93009C14.8953 6.09923 14.9762 6.25539 15.1034 6.36837C15.2895 6.5338 15.4657 6.70998 15.6311 6.89603C15.7441 7.02329 15.9002 7.10413 16.0694 7.1229L18.0098 7.33861C18.2262 7.75154 18.4054 8.18293 18.5452 8.62767L17.3258 10.1522C17.2183 10.2863 17.1649 10.4559 17.1762 10.6274H17.1788Z" fill="white"/>
</svg>
